<svg xmlns="http://www.w3.org/2000/svg" viewBox="0 0 32 32" fill="none">
  <!-- Rocket Launch Icon -->
  <defs>
    <linearGradient id="rocketGrad" x1="0%" y1="0%" x2="100%" y2="100%">
      <stop offset="0%" style="stop-color:#3b82f6"/>
      <stop offset="100%" style="stop-color:#8b5cf6"/>
    </linearGradient>
    <linearGradient id="flameGrad" x1="0%" y1="0%" x2="100%" y2="100%">
      <stop offset="0%" style="stop-color:#f59e0b"/>
      <stop offset="100%" style="stop-color:#ef4444"/>
    </linearGradient>
  </defs>
  <path d="M16 4c-4 4-6 10-6 14 0 2 1 4 3 5l3-4 3 4c2-1 3-3 3-5 0-4-2-10-6-14z" fill="url(#rocketGrad)"/>
  <circle cx="16" cy="14" r="2" fill="white" opacity="0.9"/>
  <path d="M10 18c-2 1-3 3-3 5l3-2" stroke="url(#rocketGrad)" stroke-width="1.5" stroke-linecap="round"/>
  <path d="M22 18c2 1 3 3 3 5l-3-2" stroke="url(#rocketGrad)" stroke-width="1.5" stroke-linecap="round"/>
  <path d="M13 26l3 4 3-4" fill="url(#flameGrad)" opacity="0.9"/>
</svg>
